%TF.GenerationSoftware,KiCad,Pcbnew,(6.0.4)*%
%TF.CreationDate,2023-09-14T16:27:57-04:00*%
%TF.ProjectId,Music_Visualizer,4d757369-635f-4566-9973-75616c697a65,rev?*%
%TF.SameCoordinates,Original*%
%TF.FileFunction,Paste,Top*%
%TF.FilePolarity,Positive*%
%FSLAX46Y46*%
G04 Gerber Fmt 4.6, Leading zero omitted, Abs format (unit mm)*
G04 Created by KiCad (PCBNEW (6.0.4)) date 2023-09-14 16:27:57*
%MOMM*%
%LPD*%
G01*
G04 APERTURE LIST*
G04 Aperture macros list*
%AMRoundRect*
0 Rectangle with rounded corners*
0 $1 Rounding radius*
0 $2 $3 $4 $5 $6 $7 $8 $9 X,Y pos of 4 corners*
0 Add a 4 corners polygon primitive as box body*
4,1,4,$2,$3,$4,$5,$6,$7,$8,$9,$2,$3,0*
0 Add four circle primitives for the rounded corners*
1,1,$1+$1,$2,$3*
1,1,$1+$1,$4,$5*
1,1,$1+$1,$6,$7*
1,1,$1+$1,$8,$9*
0 Add four rect primitives between the rounded corners*
20,1,$1+$1,$2,$3,$4,$5,0*
20,1,$1+$1,$4,$5,$6,$7,0*
20,1,$1+$1,$6,$7,$8,$9,0*
20,1,$1+$1,$8,$9,$2,$3,0*%
G04 Aperture macros list end*
%ADD10RoundRect,0.237500X-0.250000X-0.237500X0.250000X-0.237500X0.250000X0.237500X-0.250000X0.237500X0*%
%ADD11RoundRect,0.237500X-0.237500X0.250000X-0.237500X-0.250000X0.237500X-0.250000X0.237500X0.250000X0*%
%ADD12RoundRect,0.237500X0.237500X-0.250000X0.237500X0.250000X-0.237500X0.250000X-0.237500X-0.250000X0*%
%ADD13RoundRect,0.250000X-0.250000X-0.475000X0.250000X-0.475000X0.250000X0.475000X-0.250000X0.475000X0*%
%ADD14RoundRect,0.237500X0.300000X0.237500X-0.300000X0.237500X-0.300000X-0.237500X0.300000X-0.237500X0*%
%ADD15RoundRect,0.237500X-0.300000X-0.237500X0.300000X-0.237500X0.300000X0.237500X-0.300000X0.237500X0*%
%ADD16RoundRect,0.237500X0.250000X0.237500X-0.250000X0.237500X-0.250000X-0.237500X0.250000X-0.237500X0*%
%ADD17RoundRect,0.250000X0.475000X-0.250000X0.475000X0.250000X-0.475000X0.250000X-0.475000X-0.250000X0*%
%ADD18R,2.200000X2.800000*%
%ADD19R,2.800000X2.800000*%
%ADD20RoundRect,0.250000X0.250000X0.475000X-0.250000X0.475000X-0.250000X-0.475000X0.250000X-0.475000X0*%
%ADD21R,0.650000X0.400000*%
%ADD22RoundRect,0.237500X0.237500X-0.300000X0.237500X0.300000X-0.237500X0.300000X-0.237500X-0.300000X0*%
%ADD23RoundRect,0.150000X-0.825000X-0.150000X0.825000X-0.150000X0.825000X0.150000X-0.825000X0.150000X0*%
%ADD24RoundRect,0.250000X-0.475000X0.250000X-0.475000X-0.250000X0.475000X-0.250000X0.475000X0.250000X0*%
%ADD25RoundRect,0.250000X0.325000X0.650000X-0.325000X0.650000X-0.325000X-0.650000X0.325000X-0.650000X0*%
%ADD26RoundRect,0.150000X0.512500X0.150000X-0.512500X0.150000X-0.512500X-0.150000X0.512500X-0.150000X0*%
%ADD27RoundRect,0.250000X0.650000X-0.325000X0.650000X0.325000X-0.650000X0.325000X-0.650000X-0.325000X0*%
%ADD28RoundRect,0.150000X-0.150000X0.587500X-0.150000X-0.587500X0.150000X-0.587500X0.150000X0.587500X0*%
%ADD29RoundRect,0.250000X-0.262500X-0.450000X0.262500X-0.450000X0.262500X0.450000X-0.262500X0.450000X0*%
G04 APERTURE END LIST*
D10*
%TO.C,R13*%
X132183500Y-127254000D03*
X134008500Y-127254000D03*
%TD*%
D11*
%TO.C,R67*%
X143510000Y-87987500D03*
X143510000Y-89812500D03*
%TD*%
D10*
%TO.C,R26*%
X180697500Y-138557000D03*
X182522500Y-138557000D03*
%TD*%
D12*
%TO.C,R76*%
X143510000Y-75842500D03*
X143510000Y-74017500D03*
%TD*%
D10*
%TO.C,R32*%
X210923500Y-127254000D03*
X212748500Y-127254000D03*
%TD*%
D12*
%TO.C,R9*%
X111760000Y-131722500D03*
X111760000Y-129897500D03*
%TD*%
D10*
%TO.C,R18*%
X145010500Y-138557000D03*
X146835500Y-138557000D03*
%TD*%
D13*
%TO.C,C68*%
X255844000Y-128270000D03*
X257744000Y-128270000D03*
%TD*%
D14*
%TO.C,C35*%
X310742500Y-136779000D03*
X309017500Y-136779000D03*
%TD*%
D15*
%TO.C,C53*%
X325781500Y-152400000D03*
X327506500Y-152400000D03*
%TD*%
%TO.C,C14*%
X178207500Y-121412000D03*
X179932500Y-121412000D03*
%TD*%
D11*
%TO.C,R30*%
X221742000Y-118721500D03*
X221742000Y-120546500D03*
%TD*%
D16*
%TO.C,R51*%
X291996500Y-125730000D03*
X290171500Y-125730000D03*
%TD*%
D12*
%TO.C,R77*%
X182880000Y-75842500D03*
X182880000Y-74017500D03*
%TD*%
D10*
%TO.C,R31*%
X210034500Y-124079000D03*
X211859500Y-124079000D03*
%TD*%
D17*
%TO.C,C61*%
X110617000Y-126680000D03*
X110617000Y-124780000D03*
%TD*%
%TO.C,C63*%
X150114000Y-126426000D03*
X150114000Y-124526000D03*
%TD*%
D10*
%TO.C,R20*%
X174474500Y-119380000D03*
X176299500Y-119380000D03*
%TD*%
D15*
%TO.C,C22*%
X213259500Y-133350000D03*
X214984500Y-133350000D03*
%TD*%
%TO.C,C20*%
X217577500Y-121412000D03*
X219302500Y-121412000D03*
%TD*%
D18*
%TO.C,J1*%
X65075000Y-158987000D03*
X63075000Y-166387000D03*
D19*
X72475000Y-166387000D03*
%TD*%
D20*
%TO.C,C18*%
X194752000Y-127508000D03*
X192852000Y-127508000D03*
%TD*%
D10*
%TO.C,R5*%
X94718500Y-138557000D03*
X96543500Y-138557000D03*
%TD*%
D13*
%TO.C,C9*%
X134432000Y-138557000D03*
X136332000Y-138557000D03*
%TD*%
D14*
%TO.C,C29*%
X271372500Y-136652000D03*
X269647500Y-136652000D03*
%TD*%
D16*
%TO.C,R34*%
X211478500Y-133350000D03*
X209653500Y-133350000D03*
%TD*%
D10*
%TO.C,R29*%
X213971500Y-119380000D03*
X215796500Y-119380000D03*
%TD*%
D16*
%TO.C,R52*%
X290218500Y-133350000D03*
X288393500Y-133350000D03*
%TD*%
D21*
%TO.C,U18*%
X245430000Y-170800000D03*
X245430000Y-171450000D03*
X245430000Y-172100000D03*
X247330000Y-172100000D03*
X247330000Y-170800000D03*
%TD*%
D11*
%TO.C,R70*%
X261620000Y-87987500D03*
X261620000Y-89812500D03*
%TD*%
D15*
%TO.C,C40*%
X331369500Y-133350000D03*
X333094500Y-133350000D03*
%TD*%
D10*
%TO.C,R17*%
X141327500Y-138557000D03*
X143152500Y-138557000D03*
%TD*%
D13*
%TO.C,C7*%
X138750000Y-117983000D03*
X140650000Y-117983000D03*
%TD*%
D16*
%TO.C,R60*%
X331366500Y-125730000D03*
X329541500Y-125730000D03*
%TD*%
D14*
%TO.C,C24*%
X234034500Y-127508000D03*
X232309500Y-127508000D03*
%TD*%
D17*
%TO.C,C46*%
X228600000Y-90358000D03*
X228600000Y-88458000D03*
%TD*%
D12*
%TO.C,R38*%
X229870000Y-131722500D03*
X229870000Y-129897500D03*
%TD*%
%TO.C,R16*%
X139827000Y-136167500D03*
X139827000Y-134342500D03*
%TD*%
D16*
%TO.C,R15*%
X132738500Y-133350000D03*
X130913500Y-133350000D03*
%TD*%
D15*
%TO.C,C27*%
X252629500Y-138557000D03*
X254354500Y-138557000D03*
%TD*%
%TO.C,C15*%
X174143500Y-138557000D03*
X175868500Y-138557000D03*
%TD*%
D20*
%TO.C,C11*%
X153604000Y-136779000D03*
X151704000Y-136779000D03*
%TD*%
D14*
%TO.C,C50*%
X271626500Y-163830000D03*
X269901500Y-163830000D03*
%TD*%
D10*
%TO.C,R64*%
X341860500Y-138557000D03*
X343685500Y-138557000D03*
%TD*%
D22*
%TO.C,C48*%
X307340000Y-89762500D03*
X307340000Y-88037500D03*
%TD*%
D23*
%TO.C,U2*%
X142305000Y-124460000D03*
X142305000Y-125730000D03*
X142305000Y-127000000D03*
X142305000Y-128270000D03*
X142305000Y-129540000D03*
X142305000Y-130810000D03*
X142305000Y-132080000D03*
X147255000Y-132080000D03*
X147255000Y-130810000D03*
X147255000Y-129540000D03*
X147255000Y-128270000D03*
X147255000Y-127000000D03*
X147255000Y-125730000D03*
X147255000Y-124460000D03*
%TD*%
D16*
%TO.C,R74*%
X322222500Y-168402000D03*
X320397500Y-168402000D03*
%TD*%
D17*
%TO.C,C45*%
X189230000Y-90358000D03*
X189230000Y-88458000D03*
%TD*%
D12*
%TO.C,R19*%
X151130000Y-131722500D03*
X151130000Y-129897500D03*
%TD*%
D17*
%TO.C,C71*%
X307594000Y-126426000D03*
X307594000Y-124526000D03*
%TD*%
D15*
%TO.C,C38*%
X335687500Y-121412000D03*
X337412500Y-121412000D03*
%TD*%
D16*
%TO.C,R61*%
X329588500Y-133350000D03*
X327763500Y-133350000D03*
%TD*%
D11*
%TO.C,R14*%
X130937000Y-129135500D03*
X130937000Y-130960500D03*
%TD*%
D16*
%TO.C,R49*%
X294409500Y-121412000D03*
X292584500Y-121412000D03*
%TD*%
D11*
%TO.C,R33*%
X209677000Y-129135500D03*
X209677000Y-130960500D03*
%TD*%
D13*
%TO.C,C64*%
X177104000Y-128270000D03*
X179004000Y-128270000D03*
%TD*%
D16*
%TO.C,R58*%
X333779500Y-121412000D03*
X331954500Y-121412000D03*
%TD*%
D15*
%TO.C,C37*%
X335687500Y-117983000D03*
X337412500Y-117983000D03*
%TD*%
D11*
%TO.C,R59*%
X339852000Y-118721500D03*
X339852000Y-120546500D03*
%TD*%
D14*
%TO.C,C23*%
X232002500Y-136779000D03*
X230277500Y-136779000D03*
%TD*%
D22*
%TO.C,C49*%
X346710000Y-89762500D03*
X346710000Y-88037500D03*
%TD*%
D10*
%TO.C,R54*%
X298807500Y-138557000D03*
X300632500Y-138557000D03*
%TD*%
D12*
%TO.C,R25*%
X179197000Y-136167500D03*
X179197000Y-134342500D03*
%TD*%
D24*
%TO.C,C54*%
X313690000Y-159070000D03*
X313690000Y-160970000D03*
%TD*%
D11*
%TO.C,R41*%
X261112000Y-118721500D03*
X261112000Y-120546500D03*
%TD*%
D15*
%TO.C,C33*%
X291999500Y-138557000D03*
X293724500Y-138557000D03*
%TD*%
D10*
%TO.C,R1*%
X95607500Y-118999000D03*
X97432500Y-118999000D03*
%TD*%
D15*
%TO.C,C52*%
X325781500Y-149479000D03*
X327506500Y-149479000D03*
%TD*%
D12*
%TO.C,R56*%
X308610000Y-131722500D03*
X308610000Y-129897500D03*
%TD*%
D13*
%TO.C,C51*%
X277180000Y-160528000D03*
X279080000Y-160528000D03*
%TD*%
D15*
%TO.C,C13*%
X178207500Y-117983000D03*
X179932500Y-117983000D03*
%TD*%
D14*
%TO.C,C36*%
X312647500Y-127635000D03*
X310922500Y-127635000D03*
%TD*%
D25*
%TO.C,C6*%
X116283000Y-127508000D03*
X113333000Y-127508000D03*
%TD*%
D12*
%TO.C,R28*%
X190500000Y-131722500D03*
X190500000Y-129897500D03*
%TD*%
D14*
%TO.C,C42*%
X352017500Y-127635000D03*
X350292500Y-127635000D03*
%TD*%
D15*
%TO.C,C3*%
X94768500Y-134874000D03*
X96493500Y-134874000D03*
%TD*%
D10*
%TO.C,R12*%
X131294500Y-124079000D03*
X133119500Y-124079000D03*
%TD*%
D11*
%TO.C,R66*%
X104140000Y-87987500D03*
X104140000Y-89812500D03*
%TD*%
D20*
%TO.C,C12*%
X155382000Y-127508000D03*
X153482000Y-127508000D03*
%TD*%
D15*
%TO.C,C32*%
X296317500Y-121412000D03*
X298042500Y-121412000D03*
%TD*%
D11*
%TO.C,R68*%
X182880000Y-87987500D03*
X182880000Y-89812500D03*
%TD*%
D13*
%TO.C,C62*%
X137734000Y-128270000D03*
X139634000Y-128270000D03*
%TD*%
D14*
%TO.C,C58*%
X211174500Y-172415200D03*
X209449500Y-172415200D03*
%TD*%
D15*
%TO.C,C19*%
X217577500Y-117983000D03*
X219302500Y-117983000D03*
%TD*%
D22*
%TO.C,C47*%
X267970000Y-89762500D03*
X267970000Y-88037500D03*
%TD*%
D13*
%TO.C,C8*%
X138750000Y-121412000D03*
X140650000Y-121412000D03*
%TD*%
D14*
%TO.C,C41*%
X350112500Y-136779000D03*
X348387500Y-136779000D03*
%TD*%
D12*
%TO.C,R47*%
X269240000Y-131722500D03*
X269240000Y-129897500D03*
%TD*%
D20*
%TO.C,C17*%
X192974000Y-136779000D03*
X191074000Y-136779000D03*
%TD*%
D10*
%TO.C,R48*%
X292584500Y-119380000D03*
X294409500Y-119380000D03*
%TD*%
D15*
%TO.C,C2*%
X99467500Y-121920000D03*
X101192500Y-121920000D03*
%TD*%
%TO.C,C16*%
X174143500Y-133350000D03*
X175868500Y-133350000D03*
%TD*%
D12*
%TO.C,R65*%
X347980000Y-131722500D03*
X347980000Y-129897500D03*
%TD*%
D15*
%TO.C,C25*%
X256947500Y-117983000D03*
X258672500Y-117983000D03*
%TD*%
D10*
%TO.C,R27*%
X184380500Y-138557000D03*
X186205500Y-138557000D03*
%TD*%
D17*
%TO.C,C73*%
X346964000Y-126426000D03*
X346964000Y-124526000D03*
%TD*%
D15*
%TO.C,C26*%
X256947500Y-121412000D03*
X258672500Y-121412000D03*
%TD*%
%TO.C,C39*%
X331369500Y-138557000D03*
X333094500Y-138557000D03*
%TD*%
D12*
%TO.C,R80*%
X300990000Y-75842500D03*
X300990000Y-74017500D03*
%TD*%
D16*
%TO.C,R2*%
X97432500Y-121920000D03*
X95607500Y-121920000D03*
%TD*%
D15*
%TO.C,C28*%
X252629500Y-133350000D03*
X254354500Y-133350000D03*
%TD*%
D23*
%TO.C,U6*%
X299785000Y-124460000D03*
X299785000Y-125730000D03*
X299785000Y-127000000D03*
X299785000Y-128270000D03*
X299785000Y-129540000D03*
X299785000Y-130810000D03*
X299785000Y-132080000D03*
X304735000Y-132080000D03*
X304735000Y-130810000D03*
X304735000Y-129540000D03*
X304735000Y-128270000D03*
X304735000Y-127000000D03*
X304735000Y-125730000D03*
X304735000Y-124460000D03*
%TD*%
D13*
%TO.C,C66*%
X216474000Y-128270000D03*
X218374000Y-128270000D03*
%TD*%
D10*
%TO.C,R45*%
X259437500Y-138557000D03*
X261262500Y-138557000D03*
%TD*%
D16*
%TO.C,R23*%
X175918500Y-125730000D03*
X174093500Y-125730000D03*
%TD*%
D12*
%TO.C,R78*%
X222250000Y-75842500D03*
X222250000Y-74017500D03*
%TD*%
%TO.C,R53*%
X297307000Y-136167500D03*
X297307000Y-134342500D03*
%TD*%
D10*
%TO.C,R73*%
X320397500Y-166370000D03*
X322222500Y-166370000D03*
%TD*%
D12*
%TO.C,R75*%
X104140000Y-75842500D03*
X104140000Y-74017500D03*
%TD*%
D16*
%TO.C,R4*%
X96543500Y-125857000D03*
X94718500Y-125857000D03*
%TD*%
D25*
%TO.C,C5*%
X114759000Y-136779000D03*
X111809000Y-136779000D03*
%TD*%
D10*
%TO.C,R82*%
X336145500Y-163322000D03*
X337970500Y-163322000D03*
%TD*%
D23*
%TO.C,U3*%
X181675000Y-124460000D03*
X181675000Y-125730000D03*
X181675000Y-127000000D03*
X181675000Y-128270000D03*
X181675000Y-129540000D03*
X181675000Y-130810000D03*
X181675000Y-132080000D03*
X186625000Y-132080000D03*
X186625000Y-130810000D03*
X186625000Y-129540000D03*
X186625000Y-128270000D03*
X186625000Y-127000000D03*
X186625000Y-125730000D03*
X186625000Y-124460000D03*
%TD*%
D16*
%TO.C,R43*%
X250848500Y-133350000D03*
X249023500Y-133350000D03*
%TD*%
D10*
%TO.C,R46*%
X263120500Y-138557000D03*
X264945500Y-138557000D03*
%TD*%
D16*
%TO.C,R40*%
X255039500Y-121412000D03*
X253214500Y-121412000D03*
%TD*%
D13*
%TO.C,C70*%
X295214000Y-128270000D03*
X297114000Y-128270000D03*
%TD*%
D26*
%TO.C,U17*%
X216210000Y-172400000D03*
X216210000Y-171450000D03*
X216210000Y-170500000D03*
X213935000Y-170500000D03*
X213935000Y-172400000D03*
%TD*%
D12*
%TO.C,R81*%
X340360000Y-75842500D03*
X340360000Y-74017500D03*
%TD*%
%TO.C,R79*%
X261620000Y-75842500D03*
X261620000Y-74017500D03*
%TD*%
%TO.C,R62*%
X336677000Y-135786500D03*
X336677000Y-133961500D03*
%TD*%
D16*
%TO.C,R24*%
X172362500Y-133350000D03*
X170537500Y-133350000D03*
%TD*%
D12*
%TO.C,R35*%
X218694000Y-136167500D03*
X218694000Y-134342500D03*
%TD*%
D10*
%TO.C,R39*%
X253214500Y-119380000D03*
X255039500Y-119380000D03*
%TD*%
D15*
%TO.C,C21*%
X213259500Y-138557000D03*
X214984500Y-138557000D03*
%TD*%
D10*
%TO.C,R63*%
X338177500Y-138557000D03*
X340002500Y-138557000D03*
%TD*%
%TO.C,R55*%
X302490500Y-138557000D03*
X304315500Y-138557000D03*
%TD*%
D17*
%TO.C,C65*%
X189484000Y-126426000D03*
X189484000Y-124526000D03*
%TD*%
D15*
%TO.C,C34*%
X291999500Y-133350000D03*
X293724500Y-133350000D03*
%TD*%
%TO.C,C4*%
X94768500Y-131191000D03*
X96493500Y-131191000D03*
%TD*%
D14*
%TO.C,C57*%
X221842500Y-171450000D03*
X220117500Y-171450000D03*
%TD*%
D15*
%TO.C,C1*%
X99467500Y-118999000D03*
X101192500Y-118999000D03*
%TD*%
D23*
%TO.C,U7*%
X339155000Y-124460000D03*
X339155000Y-125730000D03*
X339155000Y-127000000D03*
X339155000Y-128270000D03*
X339155000Y-129540000D03*
X339155000Y-130810000D03*
X339155000Y-132080000D03*
X344105000Y-132080000D03*
X344105000Y-130810000D03*
X344105000Y-129540000D03*
X344105000Y-128270000D03*
X344105000Y-127000000D03*
X344105000Y-125730000D03*
X344105000Y-124460000D03*
%TD*%
D14*
%TO.C,C30*%
X273277500Y-127635000D03*
X271552500Y-127635000D03*
%TD*%
D12*
%TO.C,R44*%
X257937000Y-136167500D03*
X257937000Y-134342500D03*
%TD*%
D10*
%TO.C,R8*%
X105640500Y-138557000D03*
X107465500Y-138557000D03*
%TD*%
D12*
%TO.C,R6*%
X100457000Y-136167500D03*
X100457000Y-134342500D03*
%TD*%
D13*
%TO.C,C72*%
X334584000Y-128270000D03*
X336484000Y-128270000D03*
%TD*%
D11*
%TO.C,R72*%
X340360000Y-87987500D03*
X340360000Y-89812500D03*
%TD*%
D17*
%TO.C,C67*%
X228854000Y-126426000D03*
X228854000Y-124526000D03*
%TD*%
D15*
%TO.C,C31*%
X296317500Y-117983000D03*
X298042500Y-117983000D03*
%TD*%
D27*
%TO.C,C44*%
X149860000Y-91391000D03*
X149860000Y-88441000D03*
%TD*%
D16*
%TO.C,R42*%
X252372500Y-127000000D03*
X250547500Y-127000000D03*
%TD*%
D23*
%TO.C,U5*%
X260415000Y-124460000D03*
X260415000Y-125730000D03*
X260415000Y-127000000D03*
X260415000Y-128270000D03*
X260415000Y-129540000D03*
X260415000Y-130810000D03*
X260415000Y-132080000D03*
X265365000Y-132080000D03*
X265365000Y-130810000D03*
X265365000Y-129540000D03*
X265365000Y-128270000D03*
X265365000Y-127000000D03*
X265365000Y-125730000D03*
X265365000Y-124460000D03*
%TD*%
D11*
%TO.C,R3*%
X102997000Y-119483500D03*
X102997000Y-121308500D03*
%TD*%
D27*
%TO.C,C43*%
X109220000Y-91391000D03*
X109220000Y-88441000D03*
%TD*%
D10*
%TO.C,R7*%
X101957500Y-138557000D03*
X103782500Y-138557000D03*
%TD*%
D13*
%TO.C,C10*%
X134432000Y-133350000D03*
X136332000Y-133350000D03*
%TD*%
D28*
%TO.C,Q1*%
X341310000Y-173814500D03*
X339410000Y-173814500D03*
X340360000Y-175689500D03*
%TD*%
D17*
%TO.C,C69*%
X268224000Y-126426000D03*
X268224000Y-124526000D03*
%TD*%
D11*
%TO.C,R71*%
X300990000Y-87987500D03*
X300990000Y-89812500D03*
%TD*%
D29*
%TO.C,R57*%
X331954500Y-119380000D03*
X333779500Y-119380000D03*
%TD*%
D11*
%TO.C,R11*%
X143002000Y-118721500D03*
X143002000Y-120546500D03*
%TD*%
D23*
%TO.C,U4*%
X221045000Y-124460000D03*
X221045000Y-125730000D03*
X221045000Y-127000000D03*
X221045000Y-128270000D03*
X221045000Y-129540000D03*
X221045000Y-130810000D03*
X221045000Y-132080000D03*
X225995000Y-132080000D03*
X225995000Y-130810000D03*
X225995000Y-129540000D03*
X225995000Y-128270000D03*
X225995000Y-127000000D03*
X225995000Y-125730000D03*
X225995000Y-124460000D03*
%TD*%
D10*
%TO.C,R36*%
X220067500Y-138557000D03*
X221892500Y-138557000D03*
%TD*%
D11*
%TO.C,R69*%
X222250000Y-87987500D03*
X222250000Y-89812500D03*
%TD*%
D10*
%TO.C,R37*%
X223750500Y-138557000D03*
X225575500Y-138557000D03*
%TD*%
D14*
%TO.C,C56*%
X322172500Y-171577000D03*
X320447500Y-171577000D03*
%TD*%
D23*
%TO.C,U1*%
X102935000Y-124460000D03*
X102935000Y-125730000D03*
X102935000Y-127000000D03*
X102935000Y-128270000D03*
X102935000Y-129540000D03*
X102935000Y-130810000D03*
X102935000Y-132080000D03*
X107885000Y-132080000D03*
X107885000Y-130810000D03*
X107885000Y-129540000D03*
X107885000Y-128270000D03*
X107885000Y-127000000D03*
X107885000Y-125730000D03*
X107885000Y-124460000D03*
%TD*%
D13*
%TO.C,C60*%
X97856000Y-128270000D03*
X99756000Y-128270000D03*
%TD*%
D16*
%TO.C,R21*%
X176299500Y-121412000D03*
X174474500Y-121412000D03*
%TD*%
D11*
%TO.C,R50*%
X300482000Y-118721500D03*
X300482000Y-120546500D03*
%TD*%
D10*
%TO.C,R10*%
X135104500Y-119380000D03*
X136929500Y-119380000D03*
%TD*%
D11*
%TO.C,R22*%
X182372000Y-118721500D03*
X182372000Y-120546500D03*
%TD*%
M02*
