%TF.GenerationSoftware,KiCad,Pcbnew,(6.0.4)*%
%TF.CreationDate,2023-08-04T00:29:49-04:00*%
%TF.ProjectId,Music_Visualizer,4d757369-635f-4566-9973-75616c697a65,rev?*%
%TF.SameCoordinates,Original*%
%TF.FileFunction,Soldermask,Top*%
%TF.FilePolarity,Negative*%
%FSLAX46Y46*%
G04 Gerber Fmt 4.6, Leading zero omitted, Abs format (unit mm)*
G04 Created by KiCad (PCBNEW (6.0.4)) date 2023-08-04 00:29:49*
%MOMM*%
%LPD*%
G01*
G04 APERTURE LIST*
G04 Aperture macros list*
%AMRoundRect*
0 Rectangle with rounded corners*
0 $1 Rounding radius*
0 $2 $3 $4 $5 $6 $7 $8 $9 X,Y pos of 4 corners*
0 Add a 4 corners polygon primitive as box body*
4,1,4,$2,$3,$4,$5,$6,$7,$8,$9,$2,$3,0*
0 Add four circle primitives for the rounded corners*
1,1,$1+$1,$2,$3*
1,1,$1+$1,$4,$5*
1,1,$1+$1,$6,$7*
1,1,$1+$1,$8,$9*
0 Add four rect primitives between the rounded corners*
20,1,$1+$1,$2,$3,$4,$5,0*
20,1,$1+$1,$4,$5,$6,$7,0*
20,1,$1+$1,$6,$7,$8,$9,0*
20,1,$1+$1,$8,$9,$2,$3,0*%
G04 Aperture macros list end*
%ADD10O,2.616000X1.308000*%
%ADD11C,2.500000*%
%ADD12RoundRect,0.237500X-0.250000X-0.237500X0.250000X-0.237500X0.250000X0.237500X-0.250000X0.237500X0*%
%ADD13R,1.800000X1.800000*%
%ADD14C,1.800000*%
%ADD15RoundRect,0.237500X-0.237500X0.250000X-0.237500X-0.250000X0.237500X-0.250000X0.237500X0.250000X0*%
%ADD16RoundRect,0.237500X0.237500X-0.250000X0.237500X0.250000X-0.237500X0.250000X-0.237500X-0.250000X0*%
%ADD17C,1.200000*%
%ADD18RoundRect,0.250000X-0.250000X-0.475000X0.250000X-0.475000X0.250000X0.475000X-0.250000X0.475000X0*%
%ADD19RoundRect,0.237500X0.300000X0.237500X-0.300000X0.237500X-0.300000X-0.237500X0.300000X-0.237500X0*%
%ADD20RoundRect,0.237500X-0.300000X-0.237500X0.300000X-0.237500X0.300000X0.237500X-0.300000X0.237500X0*%
%ADD21C,3.200000*%
%ADD22RoundRect,0.237500X0.250000X0.237500X-0.250000X0.237500X-0.250000X-0.237500X0.250000X-0.237500X0*%
%ADD23RoundRect,0.250000X0.475000X-0.250000X0.475000X0.250000X-0.475000X0.250000X-0.475000X-0.250000X0*%
%ADD24R,1.600000X1.600000*%
%ADD25O,1.600000X1.600000*%
%ADD26C,1.700000*%
%ADD27R,2.200000X2.800000*%
%ADD28R,2.800000X2.800000*%
%ADD29RoundRect,0.250000X0.250000X0.475000X-0.250000X0.475000X-0.250000X-0.475000X0.250000X-0.475000X0*%
%ADD30C,1.508000*%
%ADD31C,3.216000*%
%ADD32C,1.100000*%
%ADD33R,2.200000X2.200000*%
%ADD34C,2.200000*%
%ADD35R,0.650000X0.400000*%
%ADD36RoundRect,0.237500X0.237500X-0.300000X0.237500X0.300000X-0.237500X0.300000X-0.237500X-0.300000X0*%
%ADD37RoundRect,0.150000X-0.825000X-0.150000X0.825000X-0.150000X0.825000X0.150000X-0.825000X0.150000X0*%
%ADD38C,1.500000*%
%ADD39R,1.308000X1.308000*%
%ADD40C,1.308000*%
%ADD41C,1.600000*%
%ADD42RoundRect,0.250000X-0.475000X0.250000X-0.475000X-0.250000X0.475000X-0.250000X0.475000X0.250000X0*%
%ADD43RoundRect,0.250000X0.325000X0.650000X-0.325000X0.650000X-0.325000X-0.650000X0.325000X-0.650000X0*%
%ADD44R,1.050000X1.500000*%
%ADD45O,1.050000X1.500000*%
%ADD46R,1.700000X1.700000*%
%ADD47O,1.700000X1.700000*%
%ADD48RoundRect,0.150000X0.512500X0.150000X-0.512500X0.150000X-0.512500X-0.150000X0.512500X-0.150000X0*%
%ADD49O,3.260000X6.520000*%
%ADD50R,1.130000X1.130000*%
%ADD51C,1.130000*%
%ADD52RoundRect,0.250000X0.650000X-0.325000X0.650000X0.325000X-0.650000X0.325000X-0.650000X-0.325000X0*%
%ADD53RoundRect,0.150000X-0.150000X0.587500X-0.150000X-0.587500X0.150000X-0.587500X0.150000X0.587500X0*%
%ADD54RoundRect,0.250000X-0.262500X-0.450000X0.262500X-0.450000X0.262500X0.450000X-0.262500X0.450000X0*%
G04 APERTURE END LIST*
D10*
%TO.C,J2*%
X352437440Y-164860008D03*
D11*
X351437440Y-158660008D03*
D10*
X352437440Y-154960008D03*
X345137440Y-158760008D03*
X345137440Y-155360008D03*
X345137440Y-163960008D03*
%TD*%
D12*
%TO.C,R13*%
X132183500Y-127254000D03*
X134008500Y-127254000D03*
%TD*%
D13*
%TO.C,D39*%
X201930000Y-58420000D03*
D14*
X199390000Y-58420000D03*
%TD*%
D15*
%TO.C,R67*%
X143510000Y-87987500D03*
X143510000Y-89812500D03*
%TD*%
D12*
%TO.C,R26*%
X180697500Y-138557000D03*
X182522500Y-138557000D03*
%TD*%
D16*
%TO.C,R76*%
X143510000Y-75842500D03*
X143510000Y-74017500D03*
%TD*%
D17*
%TO.C,C55*%
X325517000Y-167259000D03*
X327517000Y-167259000D03*
%TD*%
D13*
%TO.C,D6*%
X83820000Y-88900000D03*
D14*
X81280000Y-88900000D03*
%TD*%
D13*
%TO.C,D65*%
X320040000Y-99060000D03*
D14*
X317500000Y-99060000D03*
%TD*%
D12*
%TO.C,R32*%
X210923500Y-127254000D03*
X212748500Y-127254000D03*
%TD*%
D16*
%TO.C,R9*%
X111760000Y-131722500D03*
X111760000Y-129897500D03*
%TD*%
D12*
%TO.C,R18*%
X145010500Y-138557000D03*
X146835500Y-138557000D03*
%TD*%
D18*
%TO.C,C68*%
X255844000Y-128270000D03*
X257744000Y-128270000D03*
%TD*%
D19*
%TO.C,C35*%
X310742500Y-136779000D03*
X309017500Y-136779000D03*
%TD*%
D20*
%TO.C,C53*%
X325781500Y-152400000D03*
X327506500Y-152400000D03*
%TD*%
D21*
%TO.C,H2*%
X347000000Y-33000000D03*
%TD*%
D20*
%TO.C,C14*%
X178207500Y-121412000D03*
X179932500Y-121412000D03*
%TD*%
D21*
%TO.C,H1*%
X68000000Y-33000000D03*
%TD*%
D15*
%TO.C,R30*%
X221742000Y-118721500D03*
X221742000Y-120546500D03*
%TD*%
D13*
%TO.C,D68*%
X320040000Y-68580000D03*
D14*
X317500000Y-68580000D03*
%TD*%
D22*
%TO.C,R51*%
X291996500Y-125730000D03*
X290171500Y-125730000D03*
%TD*%
D16*
%TO.C,R77*%
X182880000Y-75842500D03*
X182880000Y-74017500D03*
%TD*%
D12*
%TO.C,R31*%
X210034500Y-124079000D03*
X211859500Y-124079000D03*
%TD*%
D23*
%TO.C,C61*%
X110617000Y-126680000D03*
X110617000Y-124780000D03*
%TD*%
%TO.C,C63*%
X150114000Y-126426000D03*
X150114000Y-124526000D03*
%TD*%
D13*
%TO.C,D44*%
X241300000Y-109220000D03*
D14*
X238760000Y-109220000D03*
%TD*%
D12*
%TO.C,R20*%
X174474500Y-119380000D03*
X176299500Y-119380000D03*
%TD*%
D20*
%TO.C,C22*%
X213259500Y-133350000D03*
X214984500Y-133350000D03*
%TD*%
D24*
%TO.C,U14*%
X256540000Y-99060000D03*
D25*
X256540000Y-96520000D03*
X256540000Y-93980000D03*
X256540000Y-91440000D03*
X256540000Y-88900000D03*
X256540000Y-86360000D03*
X256540000Y-83820000D03*
X256540000Y-81280000D03*
X256540000Y-78740000D03*
X248920000Y-78740000D03*
X248920000Y-81280000D03*
X248920000Y-83820000D03*
X248920000Y-86360000D03*
X248920000Y-88900000D03*
X248920000Y-91440000D03*
X248920000Y-93980000D03*
X248920000Y-96520000D03*
X248920000Y-99060000D03*
%TD*%
D20*
%TO.C,C20*%
X217577500Y-121412000D03*
X219302500Y-121412000D03*
%TD*%
D13*
%TO.C,D51*%
X280670000Y-139700000D03*
D14*
X278130000Y-139700000D03*
%TD*%
D26*
%TO.C,J1*%
X64175000Y-163068000D03*
X71175000Y-163068000D03*
D27*
X65075000Y-159368000D03*
X63075000Y-166768000D03*
D28*
X72475000Y-166768000D03*
%TD*%
D29*
%TO.C,C18*%
X194752000Y-127508000D03*
X192852000Y-127508000D03*
%TD*%
D12*
%TO.C,R5*%
X94718500Y-138557000D03*
X96543500Y-138557000D03*
%TD*%
D18*
%TO.C,C9*%
X134432000Y-138557000D03*
X136332000Y-138557000D03*
%TD*%
D30*
%TO.C,RV2*%
X229910000Y-176334750D03*
X232410000Y-176334750D03*
X234910000Y-176334750D03*
D31*
X228010000Y-169334750D03*
X236810000Y-169334750D03*
%TD*%
D19*
%TO.C,C29*%
X271372500Y-136652000D03*
X269647500Y-136652000D03*
%TD*%
D13*
%TO.C,D21*%
X162560000Y-139700000D03*
D14*
X160020000Y-139700000D03*
%TD*%
D24*
%TO.C,U12*%
X177800000Y-99060000D03*
D25*
X177800000Y-96520000D03*
X177800000Y-93980000D03*
X177800000Y-91440000D03*
X177800000Y-88900000D03*
X177800000Y-86360000D03*
X177800000Y-83820000D03*
X177800000Y-81280000D03*
X177800000Y-78740000D03*
X170180000Y-78740000D03*
X170180000Y-81280000D03*
X170180000Y-83820000D03*
X170180000Y-86360000D03*
X170180000Y-88900000D03*
X170180000Y-91440000D03*
X170180000Y-93980000D03*
X170180000Y-96520000D03*
X170180000Y-99060000D03*
%TD*%
D22*
%TO.C,R34*%
X211478500Y-133350000D03*
X209653500Y-133350000D03*
%TD*%
D13*
%TO.C,D60*%
X280670000Y-48260000D03*
D14*
X278130000Y-48260000D03*
%TD*%
D13*
%TO.C,D67*%
X320040000Y-78740000D03*
D14*
X317500000Y-78740000D03*
%TD*%
D12*
%TO.C,R29*%
X213971500Y-119380000D03*
X215796500Y-119380000D03*
%TD*%
D22*
%TO.C,R52*%
X290218500Y-133350000D03*
X288393500Y-133350000D03*
%TD*%
D32*
%TO.C,J3*%
X66294000Y-153162000D03*
X66294000Y-150622000D03*
D33*
X68834000Y-150622000D03*
D34*
X68834000Y-153162000D03*
%TD*%
D35*
%TO.C,U18*%
X245430000Y-170800000D03*
X245430000Y-171450000D03*
X245430000Y-172100000D03*
X247330000Y-172100000D03*
X247330000Y-170800000D03*
%TD*%
D15*
%TO.C,R70*%
X261620000Y-87987500D03*
X261620000Y-89812500D03*
%TD*%
D24*
%TO.C,U13*%
X217170000Y-99060000D03*
D25*
X217170000Y-96520000D03*
X217170000Y-93980000D03*
X217170000Y-91440000D03*
X217170000Y-88900000D03*
X217170000Y-86360000D03*
X217170000Y-83820000D03*
X217170000Y-81280000D03*
X217170000Y-78740000D03*
X209550000Y-78740000D03*
X209550000Y-81280000D03*
X209550000Y-83820000D03*
X209550000Y-86360000D03*
X209550000Y-88900000D03*
X209550000Y-91440000D03*
X209550000Y-93980000D03*
X209550000Y-96520000D03*
X209550000Y-99060000D03*
%TD*%
D20*
%TO.C,C40*%
X331369500Y-133350000D03*
X333094500Y-133350000D03*
%TD*%
D12*
%TO.C,R17*%
X141327500Y-138557000D03*
X143152500Y-138557000D03*
%TD*%
D18*
%TO.C,C7*%
X138750000Y-117983000D03*
X140650000Y-117983000D03*
%TD*%
D22*
%TO.C,R60*%
X331366500Y-125730000D03*
X329541500Y-125730000D03*
%TD*%
D13*
%TO.C,D2*%
X83820000Y-129540000D03*
D14*
X81280000Y-129540000D03*
%TD*%
D19*
%TO.C,C24*%
X234034500Y-127508000D03*
X232309500Y-127508000D03*
%TD*%
D23*
%TO.C,C46*%
X228600000Y-90358000D03*
X228600000Y-88458000D03*
%TD*%
D13*
%TO.C,D27*%
X162560000Y-78740000D03*
D14*
X160020000Y-78740000D03*
%TD*%
D13*
%TO.C,D13*%
X123190000Y-119380000D03*
D14*
X120650000Y-119380000D03*
%TD*%
D16*
%TO.C,R38*%
X229870000Y-131722500D03*
X229870000Y-129897500D03*
%TD*%
D24*
%TO.C,U11*%
X138430000Y-99060000D03*
D25*
X138430000Y-96520000D03*
X138430000Y-93980000D03*
X138430000Y-91440000D03*
X138430000Y-88900000D03*
X138430000Y-86360000D03*
X138430000Y-83820000D03*
X138430000Y-81280000D03*
X138430000Y-78740000D03*
X130810000Y-78740000D03*
X130810000Y-81280000D03*
X130810000Y-83820000D03*
X130810000Y-86360000D03*
X130810000Y-88900000D03*
X130810000Y-91440000D03*
X130810000Y-93980000D03*
X130810000Y-96520000D03*
X130810000Y-99060000D03*
%TD*%
D16*
%TO.C,R16*%
X139827000Y-136167500D03*
X139827000Y-134342500D03*
%TD*%
D13*
%TO.C,D5*%
X83820000Y-99060000D03*
D14*
X81280000Y-99060000D03*
%TD*%
D22*
%TO.C,R15*%
X132738500Y-133350000D03*
X130913500Y-133350000D03*
%TD*%
D20*
%TO.C,C27*%
X252629500Y-138557000D03*
X254354500Y-138557000D03*
%TD*%
%TO.C,C15*%
X174143500Y-138557000D03*
X175868500Y-138557000D03*
%TD*%
D29*
%TO.C,C11*%
X153604000Y-136779000D03*
X151704000Y-136779000D03*
%TD*%
D19*
%TO.C,C50*%
X271626500Y-163830000D03*
X269901500Y-163830000D03*
%TD*%
D13*
%TO.C,D14*%
X123190000Y-109220000D03*
D14*
X120650000Y-109220000D03*
%TD*%
D13*
%TO.C,D40*%
X201930000Y-48260000D03*
D14*
X199390000Y-48260000D03*
%TD*%
D12*
%TO.C,R64*%
X341860500Y-138557000D03*
X343685500Y-138557000D03*
%TD*%
D36*
%TO.C,C48*%
X307340000Y-89762500D03*
X307340000Y-88037500D03*
%TD*%
D37*
%TO.C,U2*%
X142305000Y-124460000D03*
X142305000Y-125730000D03*
X142305000Y-127000000D03*
X142305000Y-128270000D03*
X142305000Y-129540000D03*
X142305000Y-130810000D03*
X142305000Y-132080000D03*
X147255000Y-132080000D03*
X147255000Y-130810000D03*
X147255000Y-129540000D03*
X147255000Y-128270000D03*
X147255000Y-127000000D03*
X147255000Y-125730000D03*
X147255000Y-124460000D03*
%TD*%
D13*
%TO.C,D46*%
X241300000Y-88900000D03*
D14*
X238760000Y-88900000D03*
%TD*%
D13*
%TO.C,D8*%
X83820000Y-68580000D03*
D14*
X81280000Y-68580000D03*
%TD*%
D22*
%TO.C,R74*%
X322222500Y-168402000D03*
X320397500Y-168402000D03*
%TD*%
D23*
%TO.C,C45*%
X189230000Y-90358000D03*
X189230000Y-88458000D03*
%TD*%
D13*
%TO.C,D7*%
X83820000Y-78740000D03*
D14*
X81280000Y-78740000D03*
%TD*%
D13*
%TO.C,D37*%
X201930000Y-78740000D03*
D14*
X199390000Y-78740000D03*
%TD*%
D16*
%TO.C,R19*%
X151130000Y-131722500D03*
X151130000Y-129897500D03*
%TD*%
D38*
%TO.C,SW1*%
X110780000Y-168910000D03*
X102580000Y-168910000D03*
D39*
X108680000Y-168910000D03*
D40*
X106680000Y-168910000D03*
X104680000Y-168910000D03*
%TD*%
D23*
%TO.C,C71*%
X307594000Y-126426000D03*
X307594000Y-124526000D03*
%TD*%
D13*
%TO.C,D12*%
X123190000Y-129540000D03*
D14*
X120650000Y-129540000D03*
%TD*%
D20*
%TO.C,C38*%
X335687500Y-121412000D03*
X337412500Y-121412000D03*
%TD*%
D13*
%TO.C,D58*%
X280670000Y-68580000D03*
D14*
X278130000Y-68580000D03*
%TD*%
D13*
%TO.C,D62*%
X320040000Y-129540000D03*
D14*
X317500000Y-129540000D03*
%TD*%
D22*
%TO.C,R61*%
X329588500Y-133350000D03*
X327763500Y-133350000D03*
%TD*%
D13*
%TO.C,D55*%
X280670000Y-99060000D03*
D14*
X278130000Y-99060000D03*
%TD*%
D15*
%TO.C,R14*%
X130937000Y-129135500D03*
X130937000Y-130960500D03*
%TD*%
D22*
%TO.C,R49*%
X294409500Y-121412000D03*
X292584500Y-121412000D03*
%TD*%
D13*
%TO.C,D33*%
X201930000Y-119380000D03*
D14*
X199390000Y-119380000D03*
%TD*%
D15*
%TO.C,R33*%
X209677000Y-129135500D03*
X209677000Y-130960500D03*
%TD*%
D18*
%TO.C,C64*%
X177104000Y-128270000D03*
X179004000Y-128270000D03*
%TD*%
D22*
%TO.C,R58*%
X333779500Y-121412000D03*
X331954500Y-121412000D03*
%TD*%
D13*
%TO.C,D18*%
X123190000Y-68580000D03*
D14*
X120650000Y-68580000D03*
%TD*%
D13*
%TO.C,D50*%
X241300000Y-48260000D03*
D14*
X238760000Y-48260000D03*
%TD*%
D20*
%TO.C,C37*%
X335687500Y-117983000D03*
X337412500Y-117983000D03*
%TD*%
D24*
%TO.C,C59*%
X304800000Y-148590000D03*
D41*
X304800000Y-150590000D03*
%TD*%
D15*
%TO.C,R59*%
X339852000Y-118721500D03*
X339852000Y-120546500D03*
%TD*%
D13*
%TO.C,D3*%
X83820000Y-119380000D03*
D14*
X81280000Y-119380000D03*
%TD*%
D19*
%TO.C,C23*%
X232002500Y-136779000D03*
X230277500Y-136779000D03*
%TD*%
D13*
%TO.C,D47*%
X241300000Y-78740000D03*
D14*
X238760000Y-78740000D03*
%TD*%
D13*
%TO.C,D19*%
X123190000Y-58420000D03*
D14*
X120650000Y-58420000D03*
%TD*%
%TO.C,D71*%
X338323000Y-169164000D03*
D13*
X335783000Y-169164000D03*
%TD*%
%TO.C,D26*%
X162560000Y-88900000D03*
D14*
X160020000Y-88900000D03*
%TD*%
D36*
%TO.C,C49*%
X346710000Y-89762500D03*
X346710000Y-88037500D03*
%TD*%
D12*
%TO.C,R54*%
X298807500Y-138557000D03*
X300632500Y-138557000D03*
%TD*%
D16*
%TO.C,R25*%
X179197000Y-136167500D03*
X179197000Y-134342500D03*
%TD*%
D42*
%TO.C,C54*%
X313690000Y-159070000D03*
X313690000Y-160970000D03*
%TD*%
D13*
%TO.C,D49*%
X241300000Y-58420000D03*
D14*
X238760000Y-58420000D03*
%TD*%
D15*
%TO.C,R41*%
X261112000Y-118721500D03*
X261112000Y-120546500D03*
%TD*%
D20*
%TO.C,C33*%
X291999500Y-138557000D03*
X293724500Y-138557000D03*
%TD*%
D12*
%TO.C,R1*%
X95607500Y-118999000D03*
X97432500Y-118999000D03*
%TD*%
D20*
%TO.C,C52*%
X325781500Y-149479000D03*
X327506500Y-149479000D03*
%TD*%
D24*
%TO.C,U16*%
X335280000Y-99060000D03*
D25*
X335280000Y-96520000D03*
X335280000Y-93980000D03*
X335280000Y-91440000D03*
X335280000Y-88900000D03*
X335280000Y-86360000D03*
X335280000Y-83820000D03*
X335280000Y-81280000D03*
X335280000Y-78740000D03*
X327660000Y-78740000D03*
X327660000Y-81280000D03*
X327660000Y-83820000D03*
X327660000Y-86360000D03*
X327660000Y-88900000D03*
X327660000Y-91440000D03*
X327660000Y-93980000D03*
X327660000Y-96520000D03*
X327660000Y-99060000D03*
%TD*%
D13*
%TO.C,D54*%
X280670000Y-109220000D03*
D14*
X278130000Y-109220000D03*
%TD*%
D16*
%TO.C,R56*%
X308610000Y-131722500D03*
X308610000Y-129897500D03*
%TD*%
D18*
%TO.C,C51*%
X277180000Y-160528000D03*
X279080000Y-160528000D03*
%TD*%
D20*
%TO.C,C13*%
X178207500Y-117983000D03*
X179932500Y-117983000D03*
%TD*%
D19*
%TO.C,C36*%
X312647500Y-127635000D03*
X310922500Y-127635000D03*
%TD*%
D13*
%TO.C,D53*%
X280670000Y-119380000D03*
D14*
X278130000Y-119380000D03*
%TD*%
D13*
%TO.C,D25*%
X162560000Y-99060000D03*
D14*
X160020000Y-99060000D03*
%TD*%
D13*
%TO.C,D59*%
X280670000Y-58420000D03*
D14*
X278130000Y-58420000D03*
%TD*%
D21*
%TO.C,H3*%
X68000000Y-172000000D03*
%TD*%
D13*
%TO.C,D1*%
X83820000Y-139700000D03*
D14*
X81280000Y-139700000D03*
%TD*%
D13*
%TO.C,D22*%
X162560000Y-129540000D03*
D14*
X160020000Y-129540000D03*
%TD*%
D24*
%TO.C,U10*%
X99060000Y-99060000D03*
D25*
X99060000Y-96520000D03*
X99060000Y-93980000D03*
X99060000Y-91440000D03*
X99060000Y-88900000D03*
X99060000Y-86360000D03*
X99060000Y-83820000D03*
X99060000Y-81280000D03*
X99060000Y-78740000D03*
X91440000Y-78740000D03*
X91440000Y-81280000D03*
X91440000Y-83820000D03*
X91440000Y-86360000D03*
X91440000Y-88900000D03*
X91440000Y-91440000D03*
X91440000Y-93980000D03*
X91440000Y-96520000D03*
X91440000Y-99060000D03*
%TD*%
D43*
%TO.C,C6*%
X116283000Y-127508000D03*
X113333000Y-127508000D03*
%TD*%
D13*
%TO.C,D32*%
X201930000Y-129540000D03*
D14*
X199390000Y-129540000D03*
%TD*%
D13*
%TO.C,D48*%
X241300000Y-68580000D03*
D14*
X238760000Y-68580000D03*
%TD*%
D44*
%TO.C,U9*%
X276860000Y-163830000D03*
D45*
X275590000Y-163830000D03*
X274320000Y-163830000D03*
%TD*%
D16*
%TO.C,R28*%
X190500000Y-131722500D03*
X190500000Y-129897500D03*
%TD*%
D19*
%TO.C,C42*%
X352017500Y-127635000D03*
X350292500Y-127635000D03*
%TD*%
D13*
%TO.C,D20*%
X123190000Y-48260000D03*
D14*
X120650000Y-48260000D03*
%TD*%
D20*
%TO.C,C3*%
X94768500Y-134874000D03*
X96493500Y-134874000D03*
%TD*%
D12*
%TO.C,R12*%
X131294500Y-124079000D03*
X133119500Y-124079000D03*
%TD*%
D15*
%TO.C,R66*%
X104140000Y-87987500D03*
X104140000Y-89812500D03*
%TD*%
D29*
%TO.C,C12*%
X155382000Y-127508000D03*
X153482000Y-127508000D03*
%TD*%
D20*
%TO.C,C32*%
X296317500Y-121412000D03*
X298042500Y-121412000D03*
%TD*%
D15*
%TO.C,R68*%
X182880000Y-87987500D03*
X182880000Y-89812500D03*
%TD*%
D18*
%TO.C,C62*%
X137734000Y-128270000D03*
X139634000Y-128270000D03*
%TD*%
D19*
%TO.C,C58*%
X211174500Y-172415200D03*
X209449500Y-172415200D03*
%TD*%
D20*
%TO.C,C19*%
X217577500Y-117983000D03*
X219302500Y-117983000D03*
%TD*%
D36*
%TO.C,C47*%
X267970000Y-89762500D03*
X267970000Y-88037500D03*
%TD*%
D18*
%TO.C,C8*%
X138750000Y-121412000D03*
X140650000Y-121412000D03*
%TD*%
D19*
%TO.C,C41*%
X350112500Y-136779000D03*
X348387500Y-136779000D03*
%TD*%
D13*
%TO.C,D9*%
X83820000Y-58420000D03*
D14*
X81280000Y-58420000D03*
%TD*%
D30*
%TO.C,RV1*%
X166410000Y-176334750D03*
X168910000Y-176334750D03*
X171410000Y-176334750D03*
D31*
X164510000Y-169334750D03*
X173310000Y-169334750D03*
%TD*%
D13*
%TO.C,D43*%
X241300000Y-119380000D03*
D14*
X238760000Y-119380000D03*
%TD*%
D16*
%TO.C,R47*%
X269240000Y-131722500D03*
X269240000Y-129897500D03*
%TD*%
D29*
%TO.C,C17*%
X192974000Y-136779000D03*
X191074000Y-136779000D03*
%TD*%
D13*
%TO.C,D4*%
X83820000Y-109220000D03*
D14*
X81280000Y-109220000D03*
%TD*%
D12*
%TO.C,R48*%
X292584500Y-119380000D03*
X294409500Y-119380000D03*
%TD*%
D20*
%TO.C,C2*%
X99467500Y-121920000D03*
X101192500Y-121920000D03*
%TD*%
%TO.C,C16*%
X174143500Y-133350000D03*
X175868500Y-133350000D03*
%TD*%
D13*
%TO.C,D35*%
X201930000Y-99060000D03*
D14*
X199390000Y-99060000D03*
%TD*%
D16*
%TO.C,R65*%
X347980000Y-131722500D03*
X347980000Y-129897500D03*
%TD*%
D46*
%TO.C,JP2*%
X71120000Y-139700000D03*
D47*
X68580000Y-139700000D03*
%TD*%
D20*
%TO.C,C25*%
X256947500Y-117983000D03*
X258672500Y-117983000D03*
%TD*%
D12*
%TO.C,R27*%
X184380500Y-138557000D03*
X186205500Y-138557000D03*
%TD*%
D23*
%TO.C,C73*%
X346964000Y-126426000D03*
X346964000Y-124526000D03*
%TD*%
D13*
%TO.C,D63*%
X320040000Y-119380000D03*
D14*
X317500000Y-119380000D03*
%TD*%
D20*
%TO.C,C26*%
X256947500Y-121412000D03*
X258672500Y-121412000D03*
%TD*%
D13*
%TO.C,D30*%
X162560000Y-48260000D03*
D14*
X160020000Y-48260000D03*
%TD*%
D20*
%TO.C,C39*%
X331369500Y-138557000D03*
X333094500Y-138557000D03*
%TD*%
D16*
%TO.C,R80*%
X300990000Y-75842500D03*
X300990000Y-74017500D03*
%TD*%
D22*
%TO.C,R2*%
X97432500Y-121920000D03*
X95607500Y-121920000D03*
%TD*%
D13*
%TO.C,D36*%
X201930000Y-88900000D03*
D14*
X199390000Y-88900000D03*
%TD*%
D20*
%TO.C,C28*%
X252629500Y-133350000D03*
X254354500Y-133350000D03*
%TD*%
D37*
%TO.C,U6*%
X299785000Y-124460000D03*
X299785000Y-125730000D03*
X299785000Y-127000000D03*
X299785000Y-128270000D03*
X299785000Y-129540000D03*
X299785000Y-130810000D03*
X299785000Y-132080000D03*
X304735000Y-132080000D03*
X304735000Y-130810000D03*
X304735000Y-129540000D03*
X304735000Y-128270000D03*
X304735000Y-127000000D03*
X304735000Y-125730000D03*
X304735000Y-124460000D03*
%TD*%
D18*
%TO.C,C66*%
X216474000Y-128270000D03*
X218374000Y-128270000D03*
%TD*%
D12*
%TO.C,R45*%
X259437500Y-138557000D03*
X261262500Y-138557000D03*
%TD*%
D22*
%TO.C,R23*%
X175918500Y-125730000D03*
X174093500Y-125730000D03*
%TD*%
D16*
%TO.C,R78*%
X222250000Y-75842500D03*
X222250000Y-74017500D03*
%TD*%
%TO.C,R53*%
X297307000Y-136167500D03*
X297307000Y-134342500D03*
%TD*%
D12*
%TO.C,R73*%
X320397500Y-166370000D03*
X322222500Y-166370000D03*
%TD*%
D16*
%TO.C,R75*%
X104140000Y-75842500D03*
X104140000Y-74017500D03*
%TD*%
D22*
%TO.C,R4*%
X96543500Y-125857000D03*
X94718500Y-125857000D03*
%TD*%
D43*
%TO.C,C5*%
X114759000Y-136779000D03*
X111809000Y-136779000D03*
%TD*%
D12*
%TO.C,R82*%
X337970500Y-163322000D03*
X336145500Y-163322000D03*
%TD*%
D37*
%TO.C,U3*%
X181675000Y-124460000D03*
X181675000Y-125730000D03*
X181675000Y-127000000D03*
X181675000Y-128270000D03*
X181675000Y-129540000D03*
X181675000Y-130810000D03*
X181675000Y-132080000D03*
X186625000Y-132080000D03*
X186625000Y-130810000D03*
X186625000Y-129540000D03*
X186625000Y-128270000D03*
X186625000Y-127000000D03*
X186625000Y-125730000D03*
X186625000Y-124460000D03*
%TD*%
D13*
%TO.C,D31*%
X201930000Y-139700000D03*
D14*
X199390000Y-139700000D03*
%TD*%
D22*
%TO.C,R43*%
X250848500Y-133350000D03*
X249023500Y-133350000D03*
%TD*%
D12*
%TO.C,R46*%
X263120500Y-138557000D03*
X264945500Y-138557000D03*
%TD*%
D13*
%TO.C,D69*%
X320040000Y-58420000D03*
D14*
X317500000Y-58420000D03*
%TD*%
D13*
%TO.C,D17*%
X123190000Y-78740000D03*
D14*
X120650000Y-78740000D03*
%TD*%
D13*
%TO.C,D66*%
X320040000Y-88900000D03*
D14*
X317500000Y-88900000D03*
%TD*%
D22*
%TO.C,R40*%
X255039500Y-121412000D03*
X253214500Y-121412000D03*
%TD*%
D18*
%TO.C,C70*%
X295214000Y-128270000D03*
X297114000Y-128270000D03*
%TD*%
D13*
%TO.C,D11*%
X123190000Y-139700000D03*
D14*
X120650000Y-139700000D03*
%TD*%
D48*
%TO.C,U17*%
X216210000Y-172400000D03*
X216210000Y-171450000D03*
X216210000Y-170500000D03*
X213935000Y-170500000D03*
X213935000Y-172400000D03*
%TD*%
D13*
%TO.C,D41*%
X241300000Y-139700000D03*
D14*
X238760000Y-139700000D03*
%TD*%
D16*
%TO.C,R81*%
X340360000Y-75842500D03*
X340360000Y-74017500D03*
%TD*%
%TO.C,R79*%
X261620000Y-75842500D03*
X261620000Y-74017500D03*
%TD*%
%TO.C,R62*%
X336677000Y-135786500D03*
X336677000Y-133961500D03*
%TD*%
D13*
%TO.C,D28*%
X162560000Y-68580000D03*
D14*
X160020000Y-68580000D03*
%TD*%
D13*
%TO.C,D15*%
X123190000Y-99060000D03*
D14*
X120650000Y-99060000D03*
%TD*%
D22*
%TO.C,R24*%
X172362500Y-133350000D03*
X170537500Y-133350000D03*
%TD*%
D16*
%TO.C,R35*%
X218694000Y-136167500D03*
X218694000Y-134342500D03*
%TD*%
D49*
%TO.C,SW2*%
X306720000Y-163830000D03*
X299720000Y-163830000D03*
%TD*%
D12*
%TO.C,R39*%
X253214500Y-119380000D03*
X255039500Y-119380000D03*
%TD*%
D20*
%TO.C,C21*%
X213259500Y-138557000D03*
X214984500Y-138557000D03*
%TD*%
D12*
%TO.C,R63*%
X338177500Y-138557000D03*
X340002500Y-138557000D03*
%TD*%
%TO.C,R55*%
X302490500Y-138557000D03*
X304315500Y-138557000D03*
%TD*%
D13*
%TO.C,D57*%
X280670000Y-78740000D03*
D14*
X278130000Y-78740000D03*
%TD*%
D23*
%TO.C,C65*%
X189484000Y-126426000D03*
X189484000Y-124526000D03*
%TD*%
D13*
%TO.C,D16*%
X123190000Y-88900000D03*
D14*
X120650000Y-88900000D03*
%TD*%
D20*
%TO.C,C34*%
X291999500Y-133350000D03*
X293724500Y-133350000D03*
%TD*%
%TO.C,C4*%
X94768500Y-131191000D03*
X96493500Y-131191000D03*
%TD*%
D19*
%TO.C,C57*%
X221842500Y-171450000D03*
X220117500Y-171450000D03*
%TD*%
D20*
%TO.C,C1*%
X99467500Y-118999000D03*
X101192500Y-118999000D03*
%TD*%
D37*
%TO.C,U7*%
X339155000Y-124460000D03*
X339155000Y-125730000D03*
X339155000Y-127000000D03*
X339155000Y-128270000D03*
X339155000Y-129540000D03*
X339155000Y-130810000D03*
X339155000Y-132080000D03*
X344105000Y-132080000D03*
X344105000Y-130810000D03*
X344105000Y-129540000D03*
X344105000Y-128270000D03*
X344105000Y-127000000D03*
X344105000Y-125730000D03*
X344105000Y-124460000D03*
%TD*%
D13*
%TO.C,D10*%
X83820000Y-48260000D03*
D14*
X81280000Y-48260000D03*
%TD*%
D13*
%TO.C,D52*%
X280670000Y-129540000D03*
D14*
X278130000Y-129540000D03*
%TD*%
D13*
%TO.C,D42*%
X241300000Y-129540000D03*
D14*
X238760000Y-129540000D03*
%TD*%
D13*
%TO.C,D34*%
X201930000Y-109220000D03*
D14*
X199390000Y-109220000D03*
%TD*%
D13*
%TO.C,D61*%
X320040000Y-139700000D03*
D14*
X317500000Y-139700000D03*
%TD*%
D19*
%TO.C,C30*%
X273277500Y-127635000D03*
X271552500Y-127635000D03*
%TD*%
D16*
%TO.C,R44*%
X257937000Y-136167500D03*
X257937000Y-134342500D03*
%TD*%
D12*
%TO.C,R8*%
X105640500Y-138557000D03*
X107465500Y-138557000D03*
%TD*%
D16*
%TO.C,R6*%
X100457000Y-136167500D03*
X100457000Y-134342500D03*
%TD*%
D13*
%TO.C,D29*%
X162560000Y-58420000D03*
D14*
X160020000Y-58420000D03*
%TD*%
D18*
%TO.C,C72*%
X334584000Y-128270000D03*
X336484000Y-128270000D03*
%TD*%
D15*
%TO.C,R72*%
X340360000Y-87987500D03*
X340360000Y-89812500D03*
%TD*%
D23*
%TO.C,C67*%
X228854000Y-126426000D03*
X228854000Y-124526000D03*
%TD*%
D13*
%TO.C,D64*%
X320040000Y-109220000D03*
D14*
X317500000Y-109220000D03*
%TD*%
D13*
%TO.C,D56*%
X280670000Y-88900000D03*
D14*
X278130000Y-88900000D03*
%TD*%
D50*
%TO.C,U8*%
X317600000Y-154940000D03*
D51*
X317600000Y-157480000D03*
X317600000Y-160020000D03*
X317600000Y-162560000D03*
X325540000Y-162560000D03*
X325540000Y-160020000D03*
X325540000Y-157480000D03*
X325540000Y-154940000D03*
%TD*%
D20*
%TO.C,C31*%
X296317500Y-117983000D03*
X298042500Y-117983000D03*
%TD*%
D52*
%TO.C,C44*%
X149860000Y-91391000D03*
X149860000Y-88441000D03*
%TD*%
D22*
%TO.C,R42*%
X252372500Y-127000000D03*
X250547500Y-127000000D03*
%TD*%
D13*
%TO.C,D70*%
X320040000Y-48260000D03*
D14*
X317500000Y-48260000D03*
%TD*%
D37*
%TO.C,U5*%
X260415000Y-124460000D03*
X260415000Y-125730000D03*
X260415000Y-127000000D03*
X260415000Y-128270000D03*
X260415000Y-129540000D03*
X260415000Y-130810000D03*
X260415000Y-132080000D03*
X265365000Y-132080000D03*
X265365000Y-130810000D03*
X265365000Y-129540000D03*
X265365000Y-128270000D03*
X265365000Y-127000000D03*
X265365000Y-125730000D03*
X265365000Y-124460000D03*
%TD*%
D15*
%TO.C,R3*%
X102997000Y-119483500D03*
X102997000Y-121308500D03*
%TD*%
D13*
%TO.C,D38*%
X201930000Y-68580000D03*
D14*
X199390000Y-68580000D03*
%TD*%
D52*
%TO.C,C43*%
X109220000Y-91391000D03*
X109220000Y-88441000D03*
%TD*%
D12*
%TO.C,R7*%
X101957500Y-138557000D03*
X103782500Y-138557000D03*
%TD*%
D18*
%TO.C,C10*%
X134432000Y-133350000D03*
X136332000Y-133350000D03*
%TD*%
D53*
%TO.C,Q1*%
X341310000Y-173814500D03*
X339410000Y-173814500D03*
X340360000Y-175689500D03*
%TD*%
D23*
%TO.C,C69*%
X268224000Y-126426000D03*
X268224000Y-124526000D03*
%TD*%
D15*
%TO.C,R71*%
X300990000Y-87987500D03*
X300990000Y-89812500D03*
%TD*%
D54*
%TO.C,R57*%
X331954500Y-119380000D03*
X333779500Y-119380000D03*
%TD*%
D13*
%TO.C,D24*%
X162560000Y-109220000D03*
D14*
X160020000Y-109220000D03*
%TD*%
D15*
%TO.C,R11*%
X143002000Y-118721500D03*
X143002000Y-120546500D03*
%TD*%
D24*
%TO.C,U15*%
X295910000Y-99060000D03*
D25*
X295910000Y-96520000D03*
X295910000Y-93980000D03*
X295910000Y-91440000D03*
X295910000Y-88900000D03*
X295910000Y-86360000D03*
X295910000Y-83820000D03*
X295910000Y-81280000D03*
X295910000Y-78740000D03*
X288290000Y-78740000D03*
X288290000Y-81280000D03*
X288290000Y-83820000D03*
X288290000Y-86360000D03*
X288290000Y-88900000D03*
X288290000Y-91440000D03*
X288290000Y-93980000D03*
X288290000Y-96520000D03*
X288290000Y-99060000D03*
%TD*%
D37*
%TO.C,U4*%
X221045000Y-124460000D03*
X221045000Y-125730000D03*
X221045000Y-127000000D03*
X221045000Y-128270000D03*
X221045000Y-129540000D03*
X221045000Y-130810000D03*
X221045000Y-132080000D03*
X225995000Y-132080000D03*
X225995000Y-130810000D03*
X225995000Y-129540000D03*
X225995000Y-128270000D03*
X225995000Y-127000000D03*
X225995000Y-125730000D03*
X225995000Y-124460000D03*
%TD*%
D12*
%TO.C,R36*%
X220067500Y-138557000D03*
X221892500Y-138557000D03*
%TD*%
D13*
%TO.C,D45*%
X241300000Y-99060000D03*
D14*
X238760000Y-99060000D03*
%TD*%
D15*
%TO.C,R69*%
X222250000Y-87987500D03*
X222250000Y-89812500D03*
%TD*%
D12*
%TO.C,R37*%
X223750500Y-138557000D03*
X225575500Y-138557000D03*
%TD*%
D19*
%TO.C,C56*%
X322172500Y-171577000D03*
X320447500Y-171577000D03*
%TD*%
D37*
%TO.C,U1*%
X102935000Y-124460000D03*
X102935000Y-125730000D03*
X102935000Y-127000000D03*
X102935000Y-128270000D03*
X102935000Y-129540000D03*
X102935000Y-130810000D03*
X102935000Y-132080000D03*
X107885000Y-132080000D03*
X107885000Y-130810000D03*
X107885000Y-129540000D03*
X107885000Y-128270000D03*
X107885000Y-127000000D03*
X107885000Y-125730000D03*
X107885000Y-124460000D03*
%TD*%
D18*
%TO.C,C60*%
X97856000Y-128270000D03*
X99756000Y-128270000D03*
%TD*%
D21*
%TO.C,H4*%
X347000000Y-172000000D03*
%TD*%
D22*
%TO.C,R21*%
X176299500Y-121412000D03*
X174474500Y-121412000D03*
%TD*%
D15*
%TO.C,R50*%
X300482000Y-118721500D03*
X300482000Y-120546500D03*
%TD*%
D12*
%TO.C,R10*%
X135104500Y-119380000D03*
X136929500Y-119380000D03*
%TD*%
D13*
%TO.C,D23*%
X162560000Y-119380000D03*
D14*
X160020000Y-119380000D03*
%TD*%
D15*
%TO.C,R22*%
X182372000Y-118721500D03*
X182372000Y-120546500D03*
%TD*%
M02*
