M48
; DRILL file {KiCad (6.0.4)} date Thu Sep 14 16:28:32 2023
; FORMAT={-:-/ absolute / metric / decimal}
; #@! TF.CreationDate,2023-09-14T16:28:32-04:00
; #@! TF.GenerationSoftware,Kicad,Pcbnew,(6.0.4)
; #@! TF.FileFunction,Plated,1,2,PTH
FMAT,2
METRIC
; #@! TA.AperFunction,Plated,PTH,ViaDrill
T1C0.400
; #@! TA.AperFunction,Plated,PTH,ComponentDrill
T2C0.600
; #@! TA.AperFunction,Plated,PTH,ComponentDrill
T3C0.750
; #@! TA.AperFunction,Plated,PTH,ComponentDrill
T4C0.780
; #@! TA.AperFunction,Plated,PTH,ComponentDrill
T5C0.800
; #@! TA.AperFunction,Plated,PTH,ComponentDrill
T6C0.900
; #@! TA.AperFunction,Plated,PTH,ComponentDrill
T7C0.980
; #@! TA.AperFunction,Plated,PTH,ComponentDrill
T8C1.000
; #@! TA.AperFunction,Plated,PTH,ComponentDrill
T9C1.100
; #@! TA.AperFunction,Plated,PTH,ComponentDrill
T10C2.200
%
G90
G05
T1
X63.5Y-66.04
X63.5Y-71.12
X63.5Y-76.2
X63.5Y-81.28
X63.5Y-86.36
X63.5Y-91.44
X63.5Y-96.52
X63.5Y-101.6
X63.5Y-106.68
X63.5Y-111.76
X63.5Y-116.84
X63.5Y-121.92
X63.5Y-127.0
X63.5Y-132.08
X63.5Y-137.16
X63.5Y-142.24
X63.5Y-147.32
X63.5Y-152.4
X63.5Y-156.21
X67.31Y-45.72
X67.31Y-50.8
X67.31Y-55.88
X67.31Y-60.96
X72.39Y-45.72
X72.39Y-50.8
X72.39Y-55.88
X72.39Y-60.96
X72.39Y-71.12
X72.39Y-76.2
X72.39Y-81.28
X72.39Y-86.36
X72.39Y-91.44
X72.39Y-96.52
X72.39Y-101.6
X72.39Y-106.68
X72.39Y-111.76
X72.39Y-116.84
X72.39Y-121.92
X72.39Y-127.0
X72.39Y-132.08
X72.39Y-142.24
X72.39Y-147.32
X77.47Y-45.72
X77.47Y-50.8
X77.47Y-55.88
X77.47Y-60.96
X77.47Y-66.04
X77.47Y-71.12
X77.47Y-76.2
X77.47Y-81.28
X77.47Y-86.36
X77.47Y-91.44
X77.47Y-96.52
X77.47Y-101.6
X77.47Y-106.68
X77.47Y-111.76
X77.47Y-116.84
X77.47Y-121.92
X77.47Y-127.0
X77.47Y-132.08
X77.47Y-137.16
X77.47Y-142.24
X77.47Y-147.32
X77.47Y-156.21
X77.47Y-176.53
X82.55Y-147.32
X82.55Y-156.21
X82.55Y-161.29
X82.55Y-166.37
X82.55Y-176.53
X85.725Y-134.62
X87.63Y-147.32
X87.63Y-156.21
X87.63Y-161.29
X87.63Y-166.37
X87.63Y-176.53
X91.186Y-147.574
X92.583Y-121.158
X92.71Y-45.72
X92.71Y-161.29
X92.71Y-166.37
X92.71Y-176.53
X93.98Y-75.946
X95.758Y-128.27
X96.52Y-85.09
X96.52Y-90.17
X96.52Y-95.25
X97.79Y-30.48
X97.79Y-35.56
X97.79Y-40.64
X97.79Y-45.72
X97.79Y-50.8
X97.79Y-55.88
X97.79Y-60.96
X97.79Y-105.41
X97.79Y-110.49
X97.79Y-124.46
X97.79Y-135.89
X97.79Y-140.97
X97.79Y-166.37
X97.79Y-176.53
X98.806Y-130.429
X100.838Y-124.46
X102.87Y-30.48
X102.87Y-35.56
X102.87Y-40.64
X102.87Y-45.72
X102.87Y-50.8
X102.87Y-55.88
X102.87Y-60.96
X102.87Y-100.33
X102.87Y-105.41
X102.87Y-110.49
X102.87Y-117.475
X102.87Y-135.89
X102.87Y-140.97
X102.87Y-151.13
X102.87Y-176.53
X105.41Y-127.635
X105.41Y-130.81
X106.299Y-114.3
X106.299Y-118.364
X107.95Y-30.48
X107.95Y-35.56
X107.95Y-45.72
X107.95Y-50.8
X107.95Y-55.88
X107.95Y-60.96
X107.95Y-140.97
X107.95Y-151.13
X107.95Y-156.21
X107.95Y-176.53
X109.855Y-137.16
X110.49Y-119.38
X110.49Y-121.92
X111.76Y-85.09
X111.76Y-90.17
X111.76Y-100.33
X111.76Y-105.41
X111.76Y-110.49
X113.03Y-30.48
X113.03Y-35.56
X113.03Y-45.72
X113.03Y-50.8
X113.03Y-55.88
X113.03Y-60.96
X113.03Y-119.38
X113.03Y-151.13
X113.03Y-156.21
X113.03Y-161.29
X113.03Y-166.37
X113.03Y-171.45
X113.03Y-176.53
X113.284Y-122.936
X113.284Y-130.556
X116.84Y-80.01
X116.84Y-85.09
X116.84Y-90.17
X116.84Y-95.25
X116.84Y-105.41
X116.84Y-110.49
X117.729Y-130.429
X118.11Y-30.48
X118.11Y-151.13
X118.11Y-156.21
X118.11Y-161.29
X118.11Y-166.37
X118.11Y-171.45
X118.11Y-176.53
X123.19Y-30.48
X123.19Y-151.13
X123.19Y-156.21
X123.19Y-161.29
X123.19Y-166.37
X123.19Y-171.45
X123.19Y-176.53
X125.095Y-134.62
X128.27Y-30.48
X128.27Y-35.56
X128.27Y-151.13
X128.27Y-156.21
X128.27Y-161.29
X128.27Y-166.37
X128.27Y-171.45
X128.27Y-176.53
X132.08Y-45.72
X132.08Y-135.89
X132.08Y-140.97
X132.715Y-116.205
X132.715Y-119.38
X133.35Y-30.48
X133.35Y-35.56
X133.35Y-151.13
X133.35Y-156.21
X133.35Y-161.29
X133.35Y-166.37
X133.35Y-171.45
X133.35Y-176.53
X134.62Y-69.342
X135.89Y-90.17
X135.89Y-95.25
X137.16Y-45.72
X137.16Y-50.8
X137.16Y-60.96
X137.16Y-105.41
X137.16Y-110.49
X137.16Y-135.89
X137.16Y-140.97
X137.414Y-124.46
X138.43Y-30.48
X138.43Y-35.56
X138.43Y-40.64
X138.43Y-151.13
X138.43Y-156.21
X138.43Y-161.29
X138.43Y-166.37
X138.43Y-171.45
X138.43Y-176.53
X138.684Y-129.692
X140.208Y-124.46
X142.24Y-45.72
X142.24Y-50.8
X142.24Y-55.88
X142.24Y-100.33
X142.24Y-105.41
X142.24Y-110.49
X142.24Y-140.97
X143.51Y-30.48
X143.51Y-35.56
X143.51Y-40.64
X143.51Y-151.13
X143.51Y-161.29
X143.51Y-166.37
X143.51Y-171.45
X143.51Y-176.53
X144.78Y-127.635
X144.78Y-130.81
X146.304Y-118.364
X147.32Y-45.72
X147.32Y-50.8
X147.32Y-55.88
X147.32Y-60.96
X147.32Y-100.33
X147.32Y-105.41
X147.32Y-110.49
X148.59Y-30.48
X148.59Y-151.13
X148.59Y-161.29
X148.59Y-166.37
X148.59Y-171.45
X148.59Y-176.53
X149.352Y-137.16
X149.86Y-120.65
X152.4Y-45.72
X152.4Y-50.8
X152.4Y-55.88
X152.4Y-60.96
X152.4Y-85.09
X152.4Y-90.17
X152.4Y-100.33
X152.4Y-105.41
X152.4Y-110.49
X152.4Y-118.11
X152.4Y-120.65
X152.4Y-122.936
X152.654Y-130.302
X153.67Y-30.48
X153.67Y-146.05
X153.67Y-161.29
X153.67Y-166.37
X153.67Y-171.45
X153.67Y-176.53
X157.226Y-130.302
X157.48Y-80.01
X157.48Y-85.09
X157.48Y-90.17
X157.48Y-95.25
X157.48Y-105.41
X157.48Y-110.49
X158.75Y-30.48
X158.75Y-146.05
X158.75Y-151.13
X158.75Y-161.29
X158.75Y-166.37
X158.75Y-171.45
X158.75Y-176.53
X163.83Y-30.48
X163.83Y-146.05
X163.83Y-151.13
X164.465Y-134.62
X168.91Y-30.48
X168.91Y-146.05
X168.91Y-151.13
X171.45Y-45.72
X171.45Y-127.0
X171.45Y-135.89
X171.45Y-140.97
X172.085Y-116.205
X172.085Y-119.38
X173.99Y-30.48
X173.99Y-69.342
X173.99Y-146.05
X173.99Y-151.13
X175.26Y-90.17
X175.26Y-95.25
X175.26Y-128.27
X176.53Y-45.72
X176.53Y-50.8
X176.53Y-60.96
X176.53Y-105.41
X176.53Y-110.49
X176.53Y-124.46
X176.53Y-135.89
X176.53Y-140.97
X178.054Y-129.794
X179.07Y-30.48
X179.07Y-35.56
X179.07Y-40.64
X179.07Y-146.05
X179.07Y-151.13
X179.07Y-161.29
X179.07Y-166.37
X179.07Y-171.45
X179.07Y-176.53
X179.578Y-124.46
X181.61Y-45.72
X181.61Y-50.8
X181.61Y-55.88
X181.61Y-100.33
X181.61Y-105.41
X181.61Y-110.49
X181.61Y-140.97
X184.15Y-30.48
X184.15Y-35.56
X184.15Y-40.64
X184.15Y-127.635
X184.15Y-130.81
X184.15Y-146.05
X184.15Y-151.13
X184.15Y-161.29
X184.15Y-166.37
X184.15Y-171.45
X184.15Y-176.53
X185.42Y-118.364
X186.69Y-45.72
X186.69Y-50.8
X186.69Y-55.88
X186.69Y-60.96
X186.69Y-100.33
X186.69Y-105.41
X186.69Y-110.49
X189.23Y-30.48
X189.23Y-35.56
X189.23Y-120.65
X189.23Y-137.16
X189.23Y-146.05
X189.23Y-151.13
X189.23Y-161.29
X189.23Y-166.37
X189.23Y-171.45
X189.23Y-176.53
X191.77Y-45.72
X191.77Y-50.8
X191.77Y-55.88
X191.77Y-60.96
X191.77Y-85.09
X191.77Y-90.17
X191.77Y-100.33
X191.77Y-105.41
X191.77Y-110.49
X191.77Y-118.11
X191.77Y-120.65
X191.77Y-130.048
X192.278Y-122.936
X194.31Y-30.48
X194.31Y-146.05
X194.31Y-151.13
X194.31Y-161.29
X194.31Y-166.37
X194.31Y-171.45
X194.31Y-176.53
X196.342Y-130.048
X196.85Y-80.01
X196.85Y-85.09
X196.85Y-90.17
X196.85Y-95.25
X196.85Y-105.41
X196.85Y-110.49
X199.39Y-30.48
X199.39Y-146.05
X199.39Y-151.13
X199.39Y-156.21
X199.39Y-161.29
X199.39Y-166.37
X199.39Y-171.45
X199.39Y-176.53
X203.835Y-134.62
X204.47Y-30.48
X204.47Y-146.05
X204.47Y-151.13
X204.47Y-156.21
X204.47Y-161.29
X204.47Y-166.37
X204.47Y-171.45
X204.47Y-176.53
X209.55Y-30.48
X209.55Y-146.05
X209.55Y-151.13
X209.55Y-161.29
X209.55Y-166.37
X209.55Y-176.53
X210.82Y-45.72
X210.82Y-135.89
X210.82Y-140.97
X211.455Y-116.205
X211.455Y-118.745
X213.36Y-69.342
X214.376Y-128.27
X214.63Y-30.48
X214.63Y-35.56
X214.63Y-90.17
X214.63Y-95.25
X214.63Y-146.05
X214.63Y-151.13
X214.63Y-161.29
X214.63Y-166.37
X215.138Y-123.825
X215.9Y-45.72
X215.9Y-50.8
X215.9Y-60.96
X215.9Y-105.41
X215.9Y-110.49
X215.9Y-135.89
X215.9Y-140.97
X217.424Y-129.794
X218.44Y-176.276
X218.694Y-171.45
X219.075Y-123.825
X219.71Y-30.48
X219.71Y-35.56
X219.71Y-40.64
X219.71Y-146.05
X219.71Y-151.13
X219.71Y-161.29
X219.71Y-166.37
X220.98Y-45.72
X220.98Y-50.8
X220.98Y-55.88
X220.98Y-100.33
X220.98Y-105.41
X220.98Y-110.49
X220.98Y-140.97
X222.25Y-176.276
X223.52Y-127.635
X223.52Y-130.81
X224.663Y-118.364
X224.79Y-30.48
X224.79Y-40.64
X224.79Y-146.05
X224.79Y-151.13
X224.79Y-161.29
X226.06Y-45.72
X226.06Y-50.8
X226.06Y-55.88
X226.06Y-60.96
X226.06Y-100.33
X226.06Y-105.41
X226.06Y-110.49
X226.06Y-172.72
X226.06Y-176.276
X228.473Y-137.16
X228.6Y-120.65
X229.87Y-30.48
X229.87Y-146.05
X229.87Y-151.13
X230.886Y-122.936
X231.14Y-45.72
X231.14Y-50.8
X231.14Y-55.88
X231.14Y-60.96
X231.14Y-85.09
X231.14Y-90.17
X231.14Y-100.33
X231.14Y-105.41
X231.14Y-110.49
X231.14Y-118.11
X231.14Y-120.65
X231.394Y-129.54
X234.95Y-30.48
X234.95Y-146.05
X234.95Y-151.13
X235.966Y-129.54
X236.22Y-80.01
X236.22Y-85.09
X236.22Y-90.17
X236.22Y-95.25
X236.22Y-105.41
X236.22Y-110.49
X240.03Y-30.48
X240.03Y-146.05
X240.03Y-151.13
X240.03Y-161.29
X240.03Y-168.148
X240.03Y-176.53
X243.205Y-134.62
X243.205Y-168.148
X244.094Y-46.482
X245.11Y-30.48
X245.11Y-146.05
X245.11Y-151.13
X245.11Y-161.29
X245.11Y-176.53
X249.174Y-131.445
X249.682Y-171.958
X250.19Y-30.48
X250.19Y-45.72
X250.19Y-135.89
X250.19Y-140.97
X250.19Y-146.05
X250.19Y-151.13
X250.19Y-161.29
X250.19Y-176.53
X250.825Y-116.205
X250.825Y-119.38
X251.46Y-123.952
X253.746Y-128.27
X253.873Y-112.903
X254.254Y-169.418
X255.27Y-30.48
X255.27Y-40.64
X255.27Y-45.72
X255.27Y-50.8
X255.27Y-60.96
X255.27Y-124.46
X255.27Y-135.89
X255.27Y-140.97
X255.27Y-146.05
X255.27Y-151.13
X255.27Y-161.29
X255.27Y-176.53
X256.794Y-129.794
X257.556Y-112.903
X258.064Y-124.46
X260.35Y-30.48
X260.35Y-35.56
X260.35Y-40.64
X260.35Y-45.72
X260.35Y-50.8
X260.35Y-55.88
X260.35Y-100.33
X260.35Y-105.41
X260.35Y-110.49
X260.35Y-140.97
X260.35Y-146.05
X260.35Y-151.13
X260.35Y-156.21
X260.35Y-166.37
X260.35Y-176.53
X262.89Y-127.635
X262.89Y-130.81
X264.287Y-118.364
X265.43Y-30.48
X265.43Y-35.56
X265.43Y-40.64
X265.43Y-45.72
X265.43Y-50.8
X265.43Y-55.88
X265.43Y-60.96
X265.43Y-100.33
X265.43Y-105.41
X265.43Y-110.49
X265.43Y-146.05
X265.43Y-151.13
X265.43Y-156.21
X265.43Y-166.37
X265.43Y-176.53
X267.081Y-137.668
X267.97Y-120.65
X270.51Y-30.48
X270.51Y-45.72
X270.51Y-50.8
X270.51Y-55.88
X270.51Y-60.96
X270.51Y-85.09
X270.51Y-90.17
X270.51Y-100.33
X270.51Y-105.41
X270.51Y-110.49
X270.51Y-118.11
X270.51Y-120.65
X270.51Y-122.936
X270.51Y-129.54
X270.51Y-146.05
X270.51Y-151.13
X270.51Y-156.21
X270.51Y-176.53
X274.32Y-129.54
X275.59Y-30.48
X275.59Y-80.01
X275.59Y-85.09
X275.59Y-90.17
X275.59Y-95.25
X275.59Y-105.41
X275.59Y-110.49
X275.59Y-146.05
X275.59Y-151.13
X275.59Y-176.53
X280.67Y-30.48
X280.67Y-176.53
X281.94Y-156.21
X281.94Y-161.29
X281.94Y-166.37
X282.575Y-134.62
X285.75Y-30.48
X285.75Y-176.53
X287.02Y-151.13
X287.02Y-156.21
X287.02Y-161.29
X287.02Y-166.37
X289.306Y-131.572
X289.56Y-45.72
X289.56Y-135.89
X289.56Y-140.97
X290.195Y-116.205
X290.195Y-120.65
X290.83Y-30.48
X290.83Y-35.56
X290.83Y-176.53
X292.1Y-151.13
X292.862Y-128.016
X293.37Y-90.17
X293.37Y-95.25
X294.64Y-45.72
X294.64Y-50.8
X294.64Y-60.96
X294.64Y-105.41
X294.64Y-110.49
X294.64Y-124.46
X294.64Y-147.32
X295.91Y-30.48
X295.91Y-35.56
X295.91Y-40.64
X295.91Y-176.53
X296.164Y-129.794
X297.434Y-124.46
X299.72Y-45.72
X299.72Y-50.8
X299.72Y-55.88
X299.72Y-100.33
X299.72Y-105.41
X299.72Y-110.49
X300.99Y-30.48
X300.99Y-35.56
X300.99Y-40.64
X302.26Y-127.635
X302.26Y-130.81
X303.53Y-118.364
X304.8Y-45.72
X304.8Y-50.8
X304.8Y-55.88
X304.8Y-60.96
X304.8Y-100.33
X304.8Y-105.41
X304.8Y-110.49
X306.07Y-30.48
X306.07Y-35.56
X306.07Y-176.53
X307.34Y-120.65
X308.61Y-151.13
X309.88Y-45.72
X309.88Y-50.8
X309.88Y-55.88
X309.88Y-60.96
X309.88Y-85.09
X309.88Y-90.17
X309.88Y-100.33
X309.88Y-105.41
X309.88Y-110.49
X309.88Y-118.11
X309.88Y-120.65
X310.134Y-122.936
X310.515Y-130.048
X311.15Y-30.48
X313.69Y-130.048
X313.69Y-146.05
X313.69Y-165.1
X313.69Y-168.91
X313.69Y-172.72
X314.96Y-80.01
X314.96Y-85.09
X314.96Y-90.17
X314.96Y-95.25
X314.96Y-105.41
X314.96Y-110.49
X315.722Y-160.02
X316.23Y-30.48
X317.5Y-165.1
X317.5Y-168.91
X317.5Y-172.72
X318.77Y-146.05
X321.31Y-30.48
X322.58Y-132.08
X322.58Y-137.16
X323.342Y-152.908
X323.748Y-164.795
X323.85Y-171.45
X326.39Y-30.48
X327.66Y-45.72
X328.93Y-130.81
X328.93Y-140.97
X328.93Y-146.05
X328.93Y-161.29
X328.93Y-171.45
X329.565Y-116.205
X329.565Y-120.65
X331.47Y-30.48
X331.47Y-35.56
X331.47Y-69.342
X332.359Y-128.27
X332.74Y-45.72
X332.74Y-50.8
X332.74Y-60.96
X334.01Y-105.41
X334.01Y-110.49
X334.01Y-124.46
X334.01Y-140.97
X334.01Y-146.05
X334.01Y-151.13
X334.01Y-161.29
X334.01Y-166.37
X334.01Y-171.45
X335.534Y-129.794
X336.55Y-30.48
X336.55Y-35.56
X336.55Y-40.64
X336.804Y-124.46
X337.82Y-45.72
X337.82Y-50.8
X337.82Y-55.88
X337.82Y-66.04
X339.09Y-80.01
X339.09Y-85.09
X339.09Y-95.25
X339.09Y-100.33
X339.09Y-105.41
X339.09Y-110.49
X339.09Y-140.97
X339.09Y-146.05
X339.09Y-151.13
X341.63Y-30.48
X341.63Y-35.56
X341.63Y-40.64
X341.63Y-127.635
X341.63Y-130.81
X342.9Y-45.72
X342.9Y-50.8
X342.9Y-55.88
X342.9Y-60.96
X343.916Y-118.364
X344.17Y-69.85
X344.17Y-74.93
X344.17Y-80.01
X344.17Y-85.09
X344.17Y-95.25
X344.17Y-100.33
X344.17Y-105.41
X344.17Y-110.49
X344.17Y-140.97
X344.17Y-146.05
X346.71Y-40.64
X347.98Y-45.72
X347.98Y-50.8
X347.98Y-55.88
X347.98Y-60.96
X348.971Y-126.416
X349.25Y-69.85
X349.25Y-74.93
X349.25Y-80.01
X349.25Y-85.09
X349.25Y-90.17
X349.25Y-95.25
X349.25Y-100.33
X349.25Y-105.41
X349.25Y-110.49
X349.25Y-120.65
X349.25Y-140.97
X349.25Y-146.05
X350.647Y-130.302
X353.06Y-130.302
T2
X325.517Y-167.259
X327.517Y-167.259
T3
X274.32Y-163.83
X275.59Y-163.83
X276.86Y-163.83
T4
X317.6Y-154.94
X317.6Y-157.48
X317.6Y-160.02
X317.6Y-162.56
X325.54Y-154.94
X325.54Y-157.48
X325.54Y-160.02
X325.54Y-162.56
T5
X91.44Y-78.74
X91.44Y-81.28
X91.44Y-83.82
X91.44Y-86.36
X91.44Y-88.9
X91.44Y-91.44
X91.44Y-93.98
X91.44Y-96.52
X91.44Y-99.06
X99.06Y-78.74
X99.06Y-81.28
X99.06Y-83.82
X99.06Y-86.36
X99.06Y-88.9
X99.06Y-91.44
X99.06Y-93.98
X99.06Y-96.52
X99.06Y-99.06
X104.68Y-168.91
X106.68Y-168.91
X108.68Y-168.91
X130.81Y-78.74
X130.81Y-81.28
X130.81Y-83.82
X130.81Y-86.36
X130.81Y-88.9
X130.81Y-91.44
X130.81Y-93.98
X130.81Y-96.52
X130.81Y-99.06
X138.43Y-78.74
X138.43Y-81.28
X138.43Y-83.82
X138.43Y-86.36
X138.43Y-88.9
X138.43Y-91.44
X138.43Y-93.98
X138.43Y-96.52
X138.43Y-99.06
X170.18Y-78.74
X170.18Y-81.28
X170.18Y-83.82
X170.18Y-86.36
X170.18Y-88.9
X170.18Y-91.44
X170.18Y-93.98
X170.18Y-96.52
X170.18Y-99.06
X177.8Y-78.74
X177.8Y-81.28
X177.8Y-83.82
X177.8Y-86.36
X177.8Y-88.9
X177.8Y-91.44
X177.8Y-93.98
X177.8Y-96.52
X177.8Y-99.06
X209.55Y-78.74
X209.55Y-81.28
X209.55Y-83.82
X209.55Y-86.36
X209.55Y-88.9
X209.55Y-91.44
X209.55Y-93.98
X209.55Y-96.52
X209.55Y-99.06
X217.17Y-78.74
X217.17Y-81.28
X217.17Y-83.82
X217.17Y-86.36
X217.17Y-88.9
X217.17Y-91.44
X217.17Y-93.98
X217.17Y-96.52
X217.17Y-99.06
X248.92Y-78.74
X248.92Y-81.28
X248.92Y-83.82
X248.92Y-86.36
X248.92Y-88.9
X248.92Y-91.44
X248.92Y-93.98
X248.92Y-96.52
X248.92Y-99.06
X256.54Y-78.74
X256.54Y-81.28
X256.54Y-83.82
X256.54Y-86.36
X256.54Y-88.9
X256.54Y-91.44
X256.54Y-93.98
X256.54Y-96.52
X256.54Y-99.06
X288.29Y-78.74
X288.29Y-81.28
X288.29Y-83.82
X288.29Y-86.36
X288.29Y-88.9
X288.29Y-91.44
X288.29Y-93.98
X288.29Y-96.52
X288.29Y-99.06
X295.91Y-78.74
X295.91Y-81.28
X295.91Y-83.82
X295.91Y-86.36
X295.91Y-88.9
X295.91Y-91.44
X295.91Y-93.98
X295.91Y-96.52
X295.91Y-99.06
X304.8Y-148.59
X304.8Y-150.59
X327.66Y-78.74
X327.66Y-81.28
X327.66Y-83.82
X327.66Y-86.36
X327.66Y-88.9
X327.66Y-91.44
X327.66Y-93.98
X327.66Y-96.52
X327.66Y-99.06
X335.28Y-78.74
X335.28Y-81.28
X335.28Y-83.82
X335.28Y-86.36
X335.28Y-88.9
X335.28Y-91.44
X335.28Y-93.98
X335.28Y-96.52
X335.28Y-99.06
T6
X81.28Y-48.26
X81.28Y-58.42
X81.28Y-68.58
X81.28Y-78.74
X81.28Y-88.9
X81.28Y-99.06
X81.28Y-109.22
X81.28Y-119.38
X81.28Y-129.54
X81.28Y-139.7
X83.82Y-48.26
X83.82Y-58.42
X83.82Y-68.58
X83.82Y-78.74
X83.82Y-88.9
X83.82Y-99.06
X83.82Y-109.22
X83.82Y-119.38
X83.82Y-129.54
X83.82Y-139.7
X120.65Y-48.26
X120.65Y-58.42
X120.65Y-68.58
X120.65Y-78.74
X120.65Y-88.9
X120.65Y-99.06
X120.65Y-109.22
X120.65Y-119.38
X120.65Y-129.54
X120.65Y-139.7
X123.19Y-48.26
X123.19Y-58.42
X123.19Y-68.58
X123.19Y-78.74
X123.19Y-88.9
X123.19Y-99.06
X123.19Y-109.22
X123.19Y-119.38
X123.19Y-129.54
X123.19Y-139.7
X160.02Y-48.26
X160.02Y-58.42
X160.02Y-68.58
X160.02Y-78.74
X160.02Y-88.9
X160.02Y-99.06
X160.02Y-109.22
X160.02Y-119.38
X160.02Y-129.54
X160.02Y-139.7
X162.56Y-48.26
X162.56Y-58.42
X162.56Y-68.58
X162.56Y-78.74
X162.56Y-88.9
X162.56Y-99.06
X162.56Y-109.22
X162.56Y-119.38
X162.56Y-129.54
X162.56Y-139.7
X199.39Y-48.26
X199.39Y-58.42
X199.39Y-68.58
X199.39Y-78.74
X199.39Y-88.9
X199.39Y-99.06
X199.39Y-109.22
X199.39Y-119.38
X199.39Y-129.54
X199.39Y-139.7
X201.93Y-48.26
X201.93Y-58.42
X201.93Y-68.58
X201.93Y-78.74
X201.93Y-88.9
X201.93Y-99.06
X201.93Y-109.22
X201.93Y-119.38
X201.93Y-129.54
X201.93Y-139.7
X238.76Y-48.26
X238.76Y-58.42
X238.76Y-68.58
X238.76Y-78.74
X238.76Y-88.9
X238.76Y-99.06
X238.76Y-109.22
X238.76Y-119.38
X238.76Y-129.54
X238.76Y-139.7
X241.3Y-48.26
X241.3Y-58.42
X241.3Y-68.58
X241.3Y-78.74
X241.3Y-88.9
X241.3Y-99.06
X241.3Y-109.22
X241.3Y-119.38
X241.3Y-129.54
X241.3Y-139.7
X278.13Y-48.26
X278.13Y-58.42
X278.13Y-68.58
X278.13Y-78.74
X278.13Y-88.9
X278.13Y-99.06
X278.13Y-109.22
X278.13Y-119.38
X278.13Y-129.54
X278.13Y-139.7
X280.67Y-48.26
X280.67Y-58.42
X280.67Y-68.58
X280.67Y-78.74
X280.67Y-88.9
X280.67Y-99.06
X280.67Y-109.22
X280.67Y-119.38
X280.67Y-129.54
X280.67Y-139.7
X317.5Y-48.26
X317.5Y-58.42
X317.5Y-68.58
X317.5Y-78.74
X317.5Y-88.9
X317.5Y-99.06
X317.5Y-109.22
X317.5Y-119.38
X317.5Y-129.54
X317.5Y-139.7
X320.04Y-48.26
X320.04Y-58.42
X320.04Y-68.58
X320.04Y-78.74
X320.04Y-88.9
X320.04Y-99.06
X320.04Y-109.22
X320.04Y-119.38
X320.04Y-129.54
X320.04Y-139.7
X335.783Y-169.164
X338.323Y-169.164
T8
X68.58Y-139.7
X71.12Y-139.7
X166.41Y-176.335
X168.91Y-176.335
X171.41Y-176.335
X229.91Y-176.335
X232.41Y-176.335
X234.91Y-176.335
T9
X68.834Y-150.622
X68.834Y-153.162
T10
X164.51Y-169.335
X173.31Y-169.335
X228.01Y-169.335
X236.81Y-169.335
T5
X345.737Y-155.36G85X344.537Y-155.36
G05
X345.737Y-158.76G85X344.537Y-158.76
G05
X345.737Y-163.96G85X344.537Y-163.96
G05
X353.187Y-154.96G85X351.687Y-154.96
G05
X353.187Y-164.86G85X351.687Y-164.86
G05
T7
X299.72Y-166.23G85X299.72Y-161.43
G05
X306.72Y-166.23G85X306.72Y-161.43
G05
T0
M30
